<svg width="20" height="20" viewBox="0 0 20 20" fill="none" xmlns="http://www.w3.org/2000/svg">
<path fill-rule="evenodd" clip-rule="evenodd" d="M3.33325 10C3.33325 13.6819 6.31802 16.6667 9.99992 16.6667C13.6818 16.6667 16.6666 13.6819 16.6666 10C16.6666 6.31811 13.6818 3.33334 9.99992 3.33334C6.31802 3.33334 3.33325 6.31811 3.33325 10ZM10.0351 5.92594H9.97252C9.77899 5.92594 9.61809 6.07494 9.60324 6.2679L9.28265 10.4356C9.26903 10.6127 9.38309 10.7745 9.55448 10.8213L12.9759 11.7544C13.0002 11.761 13.0252 11.7644 13.0504 11.7644C13.2066 11.7644 13.3332 11.6377 13.3332 11.4815V11.3261C13.3332 11.1931 13.262 11.0704 13.1466 11.0045L10.7407 9.62964L10.4036 6.25945C10.3847 6.07012 10.2254 5.92594 10.0351 5.92594Z" fill="#22A45D"/>
</svg>
