<svg width="20" height="20" viewBox="0 0 20 20" fill="none" xmlns="http://www.w3.org/2000/svg">
<path fill-rule="evenodd" clip-rule="evenodd" d="M18.3334 9.99999C18.3334 14.6024 14.6025 18.3333 10.0001 18.3333C5.39771 18.3333 1.66675 14.6024 1.66675 9.99999C1.66675 5.39762 5.39771 1.66666 10.0001 1.66666C14.6025 1.66666 18.3334 5.39762 18.3334 9.99999ZM10.0511 3.74999C9.67797 3.74999 9.37549 4.05246 9.37549 4.42558V5.32212C9.32476 5.33317 9.27409 5.34498 9.22349 5.35756C8.80417 5.46172 8.42764 5.6263 8.09389 5.85131C7.76015 6.07631 7.49059 6.3638 7.2852 6.71381C7.07982 7.06381 6.97713 7.48464 6.97713 7.97631C6.97713 8.37631 7.04345 8.71589 7.1761 8.99506C7.30874 9.27422 7.48417 9.51172 7.70238 9.70756C7.9206 9.90339 8.16877 10.0638 8.44689 10.1888C8.72501 10.3138 9.00955 10.4221 9.30051 10.5138C9.60002 10.6055 9.86744 10.6909 10.1028 10.7701C10.3381 10.8492 10.5349 10.9367 10.6932 11.0326C10.8516 11.1284 10.9735 11.2346 11.0591 11.3513C11.1447 11.468 11.1874 11.6096 11.1874 11.7763C11.1874 11.9513 11.1532 12.1013 11.0848 12.2263C11.0163 12.3513 10.9243 12.4513 10.8088 12.5263C10.6932 12.6013 10.5585 12.6555 10.4044 12.6888C10.2504 12.7221 10.0921 12.7388 9.92948 12.7388C9.57007 12.7388 9.20851 12.6492 8.84482 12.4701C8.48112 12.2909 8.18803 12.068 7.96553 11.8013L6.52786 13.2263C6.93007 13.6346 7.43496 13.9492 8.04255 14.1701C8.47598 14.3276 8.92029 14.4289 9.37549 14.4741V15.5744C9.37549 15.9475 9.67797 16.25 10.0511 16.25C10.4242 16.25 10.7267 15.9475 10.7267 15.5744V14.4367C10.8951 14.4088 11.0615 14.3721 11.226 14.3263C11.6453 14.2096 12.0175 14.0305 12.3427 13.7888C12.6679 13.5471 12.9268 13.2409 13.1193 12.8701C13.3119 12.4992 13.4081 12.0596 13.4081 11.5513C13.4081 11.1096 13.3183 10.7409 13.1386 10.4451C12.9589 10.1492 12.7321 9.90131 12.4582 9.70131C12.1844 9.5013 11.8806 9.34089 11.5469 9.22006C11.2131 9.09922 10.8922 8.98881 10.5841 8.88881C10.3702 8.82214 10.1777 8.75756 10.0065 8.69506C9.83535 8.63256 9.68773 8.56381 9.56365 8.48881C9.43956 8.41381 9.34543 8.32631 9.28125 8.22631C9.21707 8.12631 9.18498 8.00131 9.18498 7.85131C9.18498 7.6763 9.22563 7.53256 9.30692 7.42006C9.38822 7.30756 9.48877 7.21589 9.60858 7.14506C9.72838 7.07422 9.86316 7.02631 10.0129 7.00131C10.1627 6.97631 10.3103 6.96381 10.4558 6.96381C10.7382 6.96381 11.0313 7.03256 11.3351 7.17006C11.6389 7.30756 11.8849 7.49297 12.0731 7.72631L13.4723 6.28881C13.0701 5.93047 12.6016 5.65964 12.0667 5.47631C11.6123 5.32055 11.1656 5.23095 10.7267 5.20753V4.42558C10.7267 4.05246 10.4242 3.74999 10.0511 3.74999Z" fill="#22A45D"/>
</svg>
